<svg xmlns="http://www.w3.org/2000/svg" version="1.1" xmlns:xlink="http://www.w3.org/1999/xlink" xmlns:svgjs="http://svgjs.com/svgjs" width="1440" height="560" preserveAspectRatio="none" viewBox="0 0 1440 560"><g mask="url(&quot;#SvgjsMask1003&quot;)" fill="none"><rect width="1440" height="560" x="0" y="0" fill="rgba(24, 106, 59, 1)"></rect><path d="M0,536.817C98.413,545.19,165.274,439.852,247.872,385.696C329.555,332.14,426.593,300.42,482.599,220.396C544.47,131.991,588.397,24.381,575.739,-82.779C562.971,-190.865,498.866,-290.525,414.171,-358.881C335.728,-422.191,229.951,-429.872,129.95,-442.568C43.581,-453.533,-42.527,-453.78,-125.495,-427.397C-207.132,-401.437,-273.465,-348.994,-338.749,-293.528C-414.913,-228.819,-504.001,-171.425,-537.574,-77.292C-574.067,25.029,-594.652,154.824,-529.715,241.913C-463.703,330.444,-318.66,291.991,-222.173,345.707C-135.057,394.206,-99.347,528.365,0,536.817" fill="#13552f"></path><path d="M1440 975.4680000000001C1519.1680000000001 969.471 1605.72 962.0609999999999 1663.171 907.261 1718.415 854.566 1699.374 762.2760000000001 1734.545 694.514 1772.576 621.241 1889.23 578.8 1875.944 497.321 1862.57 415.301 1742.621 406.325 1678.862 353.025 1628.263 310.726 1601.527 242.538 1540.695 217.063 1476.801 190.305 1403.125 188.63099999999997 1337.216 209.95 1272.18 230.986 1217.306 277.265 1179.179 333.997 1143.5439999999999 387.02 1138.897 452.196 1131.748 515.68 1124.809 577.299 1129.2649999999999 636.4639999999999 1138.2060000000001 697.825 1150.532 782.413 1131.078 884.928 1193.987 942.803 1256.125 999.969 1355.807 981.846 1440 975.4680000000001" fill="#1d7f47"></path></g><defs><mask id="SvgjsMask1003"><rect width="1440" height="560" fill="#ffffff"></rect></mask></defs></svg>