<svg xmlns="http://www.w3.org/2000/svg" version="1.1" xmlns:xlink="http://www.w3.org/1999/xlink" xmlns:svgjs="http://svgjs.com/svgjs" width="1440" height="560" preserveAspectRatio="none" viewBox="0 0 1440 560"><g mask="url(&quot;#SvgjsMask1179&quot;)" fill="none"><rect width="1440" height="560" x="0" y="0" fill="rgba(110, 231, 183, 1)"></rect><path d="M0,656.103C121.899,642.142,158.003,472.694,263.23,409.594C373.93,343.212,565.529,400.15,621.108,283.651C676.35,167.859,509.311,56.379,492.416,-70.799C475.22,-200.237,601.898,-349.161,523.198,-453.354C446.011,-555.544,279.422,-501.194,152.807,-520.413C45.599,-536.686,-55.896,-569.003,-163.733,-557.622C-289.308,-544.369,-424.417,-533.431,-518.787,-449.532C-617.236,-362.007,-675.167,-229.498,-680.841,-97.89C-686.303,28.796,-618.555,144.699,-548.979,250.71C-487.16,344.901,-395.689,407.751,-305.057,474.678C-207.916,546.412,-119.972,669.843,0,656.103" fill="#45e0a3"></path><path d="M1440 1167.3600000000001C1564.317 1165.644 1699.491 1193.7089999999998 1802.94 1124.746 1906.026 1056.025 1932.73 921.1569999999999 1980.681 806.921 2027.108 696.315 2093.316 587.233 2078.531 468.193 2063.642 348.312 1975.502 255.676 1900.459 161.01 1822.129 62.19799999999998 1756.657-74.16600000000005 1632.26-94.77599999999995 1507.134-115.50599999999997 1415.194 25.340000000000032 1293.31 60.420000000000016 1170.409 95.79199999999997 1024.7559999999999 35.67399999999998 920.696 110.02100000000002 811.426 188.08999999999997 728.056 324.679 735.786 458.749 743.442 591.545 900.273 660.326 959.297 779.53 1015.509 893.054 971.971 1055.312 1070.563 1134.856 1168.7640000000001 1214.085 1313.835 1169.1019999999999 1440 1167.3600000000001" fill="#97eecb"></path></g><defs><mask id="SvgjsMask1179"><rect width="1440" height="560" fill="#ffffff"></rect></mask></defs></svg>