<?xml version="1.0" encoding="utf-8"?>
<!-- Generator: Adobe Illustrator 16.0.0, SVG Export Plug-In . SVG Version: 6.00 Build 0)  -->
<!DOCTYPE svg PUBLIC "-//W3C//DTD SVG 1.1//EN" "http://www.w3.org/Graphics/SVG/1.1/DTD/svg11.dtd">
<svg version="1.1" id="Layer_1" xmlns="http://www.w3.org/2000/svg" xmlns:xlink="http://www.w3.org/1999/xlink" x="0px" y="0px"
	 width="176.9px" height="126.02px" viewBox="0 0 176.9 126.02" enable-background="new 0 0 176.9 126.02" xml:space="preserve">
<pattern  x="-53.28" y="-48.72" width="72" height="72" patternUnits="userSpaceOnUse" id="_x36__lpi_50_x25_" viewBox="72.25 -72 72 72" overflow="visible">
	<g>
		<polygon fill="none" points="72.25,-72 144.25,-72 144.25,0 72.25,0 		"/>
		<g>
			<line fill="none" stroke="#000000" stroke-width="6" x1="144" y1="-6" x2="216.5" y2="-6"/>
			<line fill="none" stroke="#000000" stroke-width="6" x1="144" y1="-30" x2="216.5" y2="-30"/>
			<line fill="none" stroke="#000000" stroke-width="6" x1="144" y1="-54" x2="216.5" y2="-54"/>
			<line fill="none" stroke="#000000" stroke-width="6" x1="144" y1="-18" x2="216.5" y2="-18"/>
			<line fill="none" stroke="#000000" stroke-width="6" x1="144" y1="-42" x2="216.5" y2="-42"/>
			<line fill="none" stroke="#000000" stroke-width="6" x1="144" y1="-66" x2="216.5" y2="-66"/>
		</g>
		<g>
			<line fill="none" stroke="#000000" stroke-width="6" x1="72" y1="-6" x2="144.5" y2="-6"/>
			<line fill="none" stroke="#000000" stroke-width="6" x1="72" y1="-30" x2="144.5" y2="-30"/>
			<line fill="none" stroke="#000000" stroke-width="6" x1="72" y1="-54" x2="144.5" y2="-54"/>
			<line fill="none" stroke="#000000" stroke-width="6" x1="72" y1="-18" x2="144.5" y2="-18"/>
			<line fill="none" stroke="#000000" stroke-width="6" x1="72" y1="-42" x2="144.5" y2="-42"/>
			<line fill="none" stroke="#000000" stroke-width="6" x1="72" y1="-66" x2="144.5" y2="-66"/>
		</g>
		<g>
			<line fill="none" stroke="#000000" stroke-width="6" x1="0" y1="-6" x2="72.5" y2="-6"/>
			<line fill="none" stroke="#000000" stroke-width="6" x1="0" y1="-30" x2="72.5" y2="-30"/>
			<line fill="none" stroke="#000000" stroke-width="6" x1="0" y1="-54" x2="72.5" y2="-54"/>
			<line fill="none" stroke="#000000" stroke-width="6" x1="0" y1="-18" x2="72.5" y2="-18"/>
			<line fill="none" stroke="#000000" stroke-width="6" x1="0" y1="-42" x2="72.5" y2="-42"/>
			<line fill="none" stroke="#000000" stroke-width="6" x1="0" y1="-66" x2="72.5" y2="-66"/>
		</g>
	</g>
</pattern>
<g id="XMLID_1_">
	<g>
		<path d="M122.46,35.62c-4.37-4.49-10.49-7.28-17.25-7.28c-5.271,0-10.15,1.69-14.13,4.57c-0.011,0.01-0.011,0.02-0.021,0.02
			c-0.03,0.01-0.06,0.04-0.09,0.06c-0.18,0.15-0.69,0.52-1.26,0.95c-0.08,0.05-0.17,0.12-0.25,0.19c-0.49,0.37-1,0.76-1.37,1.05
			c-3.96,3.12-7.74,6.47-11.31,10.01l-1.91-1.92l10.67-10.62l14.52-14.49l0.04-0.04l2.69-2.66l2.83-2.81
			C114.8,4.76,126.72,0,139.76,0c3.59,0,7.1,0.36,10.5,1.07c5.66,1.13,10.979,3.21,15.83,6.02c1.96,1.13,3.84,2.4,5.62,3.77
			c1.819,1.42,3.56,2.93,5.189,4.57l-3.76,3.77l-16.32,16.23c-3.31-3.32-7.6-5.69-12.399-6.64c-1.521-0.3-3.07-0.45-4.66-0.45
			c-6.66,0-12.69,2.7-17.04,7.06c-0.08,0.09-0.17,0.17-0.24,0.26C122.47,35.65,122.47,35.63,122.46,35.62z"/>
		<linearGradient id="SVGID_1_" gradientUnits="userSpaceOnUse" x1="40" y1="72.6099" x2="173.8599" y2="72.6099">
			<stop  offset="0" style="stop-color:#FFFFFF"/>
			<stop  offset="1" style="stop-color:#F9ED21"/>
		</linearGradient>
		<path fill="url(#SVGID_1_)" d="M122.44,69.55c0.05-0.06,0.11-0.12,0.16-0.19c-0.05-0.04-0.09-0.08-0.12-0.12
			c4.23-4.34,6.82-10.27,6.82-16.79c0-6.54-2.59-12.46-6.82-16.79c0.07-0.09,0.16-0.17,0.24-0.26c4.35-4.36,10.38-7.06,17.04-7.06
			c1.59,0,3.14,0.15,4.66,0.45c4.8,0.95,9.09,3.32,12.399,6.64l16.32-16.23c0.47,3.88,0.72,7.84,0.72,11.85
			c0,29.81-13.72,56.4-35.21,73.81c-16.31,13.24-37.1,21.16-59.74,21.16c-13.85,0-27-2.96-38.86-8.29
			c-0.03-0.021-0.04-0.021-0.05-0.03c0.02,0,0.05-0.01,0.08-0.01c23.54-3.71,45.01-13.66,62.64-28.12
			C109.98,83.62,116.6,76.91,122.44,69.55z"/>
		<linearGradient id="SVGID_2_" gradientUnits="userSpaceOnUse" x1="39.4702" y1="73.3101" x2="129.3003" y2="73.3101">
			<stop  offset="0" style="stop-color:#747B6C"/>
			<stop  offset="0.0488" style="stop-color:#6F7864"/>
			<stop  offset="0.1406" style="stop-color:#687456"/>
			<stop  offset="0.2288" style="stop-color:#62724C"/>
			<stop  offset="0.3112" style="stop-color:#5E7147"/>
			<stop  offset="0.3817" style="stop-color:#5D7146"/>
			<stop  offset="0.7684" style="stop-color:#233317"/>
			<stop  offset="1" style="stop-color:#000000"/>
		</linearGradient>
		<path fill="url(#SVGID_2_)" d="M122.48,35.66c4.23,4.33,6.82,10.25,6.82,16.79c0,6.52-2.59,12.45-6.82,16.79
			c-0.05,0.05-0.1,0.12-0.18,0.17l-16.84-16.84L89.73,68.22l-1.4,1.41l-48.25,48.06c-0.03,0-0.06,0.01-0.08,0.01
			c0.01,0.01,0.02,0.01,0.05,0.03l-0.58,0.55c0.04-0.17,0.07-0.34,0.08-0.51c0.03-0.101,0.04-0.17,0.05-0.25
			c4.5-28.08,17.89-53.17,37.18-72.33c3.57-3.54,7.35-6.89,11.31-10.01c0.37-0.29,0.88-0.68,1.37-1.05
			c0.09-0.07,0.17-0.13,0.25-0.19c0.569-0.43,1.08-0.8,1.26-0.95c0.06-0.04,0.09-0.06,0.09-0.06c0.01,0,0.01-0.01,0.021-0.02
			c3.979-2.88,8.859-4.57,14.13-4.57c6.76,0,12.88,2.79,17.25,7.28C122.47,35.63,122.47,35.65,122.48,35.66z"/>
		<pattern  id="SVGID_3_" xlink:href="#_x36__lpi_50_x25_" patternTransform="matrix(1 0 0 1 -93.1587 -101.3672)">
		</pattern>
		<path fill="url(#SVGID_3_)" d="M122.3,69.41l0.14,0.14c-5.84,7.36-12.46,14.07-19.72,20.02c-17.63,14.46-39.1,24.41-62.64,28.12
			l48.25-48.06l1.4-1.41l15.73-15.65L122.3,69.41z"/>
		<path d="M74.87,43.27l1.91,1.92C57.49,64.35,44.1,89.44,39.6,117.52c-0.01,0.08-0.02,0.149-0.05,0.25
			c-6.54,1-13.24,1.51-20.05,1.51c-6.63,0-13.15-0.49-19.5-1.43l15.84-15.801L74.87,43.27z"/>
	</g>
</g>
</svg>
