<?xml version="1.0" encoding="utf-8"?>
<!-- Generator: Adobe Illustrator 16.0.0, SVG Export Plug-In . SVG Version: 6.00 Build 0)  -->
<!DOCTYPE svg PUBLIC "-//W3C//DTD SVG 1.1//EN" "http://www.w3.org/Graphics/SVG/1.1/DTD/svg11.dtd">
<svg version="1.1" id="Layer_1" xmlns="http://www.w3.org/2000/svg" xmlns:xlink="http://www.w3.org/1999/xlink" x="0px" y="0px"
	 width="101.945px" height="53.312px" viewBox="0 0 101.945 53.312" enable-background="new 0 0 101.945 53.312"
	 xml:space="preserve">
<pattern  x="-95.745" y="-189.05" width="72" height="72" patternUnits="userSpaceOnUse" id="_x36__lpi_50_x25_" viewBox="72.25 -72 72 72" overflow="visible">
	<g>
		<polygon fill="none" points="72.25,-72 144.25,-72 144.25,0 72.25,0 		"/>
		<g>
			<line fill="none" stroke="#000000" stroke-width="6" x1="144" y1="-6" x2="216.5" y2="-6"/>
			<line fill="none" stroke="#000000" stroke-width="6" x1="144" y1="-30" x2="216.5" y2="-30"/>
			<line fill="none" stroke="#000000" stroke-width="6" x1="144" y1="-54" x2="216.5" y2="-54"/>
			<line fill="none" stroke="#000000" stroke-width="6" x1="144" y1="-18" x2="216.5" y2="-18"/>
			<line fill="none" stroke="#000000" stroke-width="6" x1="144" y1="-42" x2="216.5" y2="-42"/>
			<line fill="none" stroke="#000000" stroke-width="6" x1="144" y1="-66" x2="216.5" y2="-66"/>
		</g>
		<g>
			<line fill="none" stroke="#000000" stroke-width="6" x1="72" y1="-6" x2="144.5" y2="-6"/>
			<line fill="none" stroke="#000000" stroke-width="6" x1="72" y1="-30" x2="144.5" y2="-30"/>
			<line fill="none" stroke="#000000" stroke-width="6" x1="72" y1="-54" x2="144.5" y2="-54"/>
			<line fill="none" stroke="#000000" stroke-width="6" x1="72" y1="-18" x2="144.5" y2="-18"/>
			<line fill="none" stroke="#000000" stroke-width="6" x1="72" y1="-42" x2="144.5" y2="-42"/>
			<line fill="none" stroke="#000000" stroke-width="6" x1="72" y1="-66" x2="144.5" y2="-66"/>
		</g>
		<g>
			<line fill="none" stroke="#000000" stroke-width="6" x1="0" y1="-6" x2="72.5" y2="-6"/>
			<line fill="none" stroke="#000000" stroke-width="6" x1="0" y1="-30" x2="72.5" y2="-30"/>
			<line fill="none" stroke="#000000" stroke-width="6" x1="0" y1="-54" x2="72.5" y2="-54"/>
			<line fill="none" stroke="#000000" stroke-width="6" x1="0" y1="-18" x2="72.5" y2="-18"/>
			<line fill="none" stroke="#000000" stroke-width="6" x1="0" y1="-42" x2="72.5" y2="-42"/>
			<line fill="none" stroke="#000000" stroke-width="6" x1="0" y1="-66" x2="72.5" y2="-66"/>
		</g>
	</g>
</pattern>
<g>
	<g id="XMLID_2_">
		<g>
			
				<pattern  id="SVGID_1_" xlink:href="#_x36__lpi_50_x25_" patternTransform="matrix(0.1909 -0.1909 0.1909 0.1909 -4901.0464 -7908.5791)">
			</pattern>
			<path fill="url(#SVGID_1_)" d="M14.209,28.308c-0.607,6.127-2.804,12.125-6.592,17.321L7.655,27.25v-0.539l0.011-5.988h6.433
				h0.053C14.442,23.242,14.459,25.786,14.209,28.308z"/>
			<path d="M1.172,19.718c0.002,0.001,0.003,0.003,0.003,0.007c0-0.004-0.053,0.352-0.099,0.675
				C1.105,20.169,1.137,19.942,1.172,19.718z"/>
			<path d="M1.063,20.505c0.002-0.036,0.007-0.071,0.013-0.105C1.073,20.435,1.067,20.471,1.063,20.505z"/>
			<path d="M14.217,0l-0.002,1.437l0.004,0.004l-0.015,6.211c-1.269-0.003-2.542,0.362-3.638,1.1C10.22,8.981,9.897,9.25,9.59,9.554
				c-1.271,1.271-1.905,2.936-1.903,4.602c-0.002,0.028,0,0.058,0.002,0.09c-0.004,0-0.008,0-0.011,0
				c-1.691-0.023-3.392,0.613-4.68,1.904c-1.007,1.008-1.618,2.264-1.823,3.575c0-0.004-0.001-0.006-0.003-0.007
				c-0.035,0.225-0.067,0.451-0.096,0.682c-0.006,0.034-0.011,0.069-0.013,0.105c-0.009,0.079-0.019,0.153-0.029,0.217
				c-0.161,1.351-0.241,2.709-0.248,4.067l-0.731-0.001l0.007-4.065l0.01-5.536v-0.016l0.006-1.017v-1.051l0.002-0.028v-0.02
				c0.25-3.25,1.618-6.424,4.101-8.911C4.87,3.46,5.607,2.856,6.39,2.345c1.298-0.862,2.708-1.486,4.172-1.87
				c0.587-0.16,1.188-0.276,1.792-0.353C12.97,0.039,13.595,0,14.217,0z"/>
			<linearGradient id="SVGID_2_" gradientUnits="userSpaceOnUse" x1="-0.9985" y1="37.042" x2="24.5495" y2="11.4939">
				<stop  offset="0" style="stop-color:#FFFFFF"/>
				<stop  offset="1" style="stop-color:#F9ED21"/>
			</linearGradient>
			<path fill="url(#SVGID_2_)" d="M7.607,45.647c0.006-0.007,0.006-0.014,0.01-0.019c3.789-5.196,5.985-11.194,6.592-17.321
				c0.25-2.521,0.233-5.065-0.057-7.585c-0.002-0.021-0.002-0.04-0.007-0.064c-0.016,0-0.031,0-0.046-0.004
				c-0.021-1.633-0.655-3.258-1.901-4.505c-1.249-1.247-2.876-1.883-4.506-1.902l-0.002-0.002c-0.002-0.032-0.004-0.062-0.002-0.09
				c-0.002-1.666,0.632-3.331,1.903-4.602c0.307-0.304,0.63-0.572,0.975-0.803c1.096-0.737,2.369-1.103,3.638-1.1l0.015-6.211
				c0.832,0.648,1.634,1.354,2.403,2.125c5.686,5.685,8.142,13.382,7.363,20.802c-0.587,5.639-3.044,11.119-7.367,15.441
				c-2.642,2.642-5.718,4.588-8.997,5.836l-0.001,0.003C7.613,45.645,7.611,45.647,7.607,45.647z"/>
			<path d="M7.617,45.629c-0.004,0.005-0.004,0.012-0.01,0.019c0.004,0,0.006-0.003,0.012,0v0.214
				c-0.027-0.038-0.056-0.083-0.083-0.114c-0.017-0.023-0.029-0.039-0.042-0.057c-4.497-6.218-6.733-13.562-6.708-20.901
				c0.007-1.358,0.087-2.717,0.248-4.067c0.01-0.063,0.02-0.138,0.029-0.217c0.004-0.034,0.01-0.07,0.013-0.105
				c0.046-0.323,0.099-0.679,0.099-0.675c0.205-1.312,0.815-2.567,1.823-3.575c1.288-1.291,2.989-1.928,4.68-1.904
				c0.003,0,0.007,0,0.011,0l0.002,0.002c1.63,0.02,3.258,0.655,4.506,1.902c1.246,1.247,1.88,2.872,1.901,4.505
				c0,0.022,0.001,0.043,0,0.068H7.666l-0.011,5.988v0.539L7.617,45.629z"/>
			<path d="M0.787,24.789c-0.025,7.34,2.211,14.684,6.708,20.901c0.013,0.018,0.025,0.033,0.042,0.057
				c-1.061,1.436-2.24,2.813-3.542,4.115C2.731,51.131,1.393,52.277,0,53.312l0.01-6.04l0.045-22.483L0.787,24.789z"/>
		</g>
	</g>
	<g>
		<path d="M41.221,24.238v11.051h-6.499V32.72c-0.991,1.908-2.973,2.899-5.874,2.899c-4.772,0-7.416-2.68-7.416-6.132
			c0-3.67,2.68-5.946,8.848-5.946h3.965c-0.11-2.021-1.469-3.158-4.223-3.158c-1.909,0-4.038,0.661-5.396,1.726l-2.35-4.736
			c2.276-1.504,5.654-2.313,8.774-2.313C37.513,15.06,41.221,17.924,41.221,24.238z M26.976,8.929c0-2.606,2.093-4.699,4.846-4.699
			c2.717,0,4.846,2.093,4.846,4.699s-2.129,4.662-4.846,4.662C29.069,13.591,26.976,11.535,26.976,8.929z M34.246,28.9v-1.726
			h-3.011c-2.24,0-3.047,0.809-3.047,2.021c0,1.174,0.954,2.019,2.606,2.019C32.336,31.214,33.694,30.479,34.246,28.9z
			 M29.729,8.929c0,1.212,0.918,2.093,2.093,2.093s2.093-0.881,2.093-2.093c0-1.249-0.918-2.13-2.093-2.13S29.729,7.68,29.729,8.929
			z"/>
		<path d="M67.325,15.39v16.265c0,7.526-4.26,11.088-11.676,11.088c-3.818,0-7.453-0.881-9.875-2.607l2.533-4.883
			c1.652,1.321,4.369,2.13,6.719,2.13c3.745,0,5.323-1.689,5.323-4.81v-0.661c-1.358,1.579-3.377,2.35-5.91,2.35
			c-5.287,0-9.766-3.744-9.766-9.618c0-5.838,4.479-9.583,9.766-9.583c2.753,0,4.883,0.881,6.241,2.754V15.39H67.325z
			 M60.423,24.643c0-2.424-1.836-4.038-4.332-4.038c-2.497,0-4.369,1.614-4.369,4.038c0,2.423,1.872,4.074,4.369,4.074
			C58.587,28.717,60.423,27.065,60.423,24.643z"/>
		<path d="M71.804,8.048h6.976v27.241h-6.976V8.048z"/>
		<path d="M101.945,24.238v11.051h-6.498V32.72c-0.992,1.908-2.974,2.899-5.874,2.899c-4.772,0-7.416-2.68-7.416-6.132
			c0-3.67,2.68-5.946,8.848-5.946h3.965c-0.11-2.021-1.468-3.158-4.222-3.158c-1.909,0-4.039,0.661-5.397,1.726l-2.35-4.736
			c2.276-1.504,5.654-2.313,8.774-2.313C98.236,15.06,101.945,17.924,101.945,24.238z M94.97,28.9v-1.726h-3.01
			c-2.24,0-3.048,0.809-3.048,2.021c0,1.174,0.954,2.019,2.606,2.019C93.061,31.214,94.42,30.479,94.97,28.9z"/>
	</g>
</g>
</svg>
